<?xml version="1.0" encoding="UTF-8"?>
<svg version="1.1" xmlns="http://www.w3.org/2000/svg" width="372" height="189">
<path d="M0 0 C0.83621069 -0.02423916 1.67242138 -0.04847832 2.53397179 -0.073452 C5.20130195 0.34791846 6.06787908 1.10043444 7.64907837 3.26068115 C7.96307291 6.40062659 7.95924099 7.49000938 6.64907837 10.26068115 C3.6005776 13.60183799 0.13396167 16.38794194 -3.35092163 19.26068115 C-5.06681786 20.79392576 -6.77538205 22.33542181 -8.47592163 23.88568115 C-11.37193591 26.49389277 -14.28234299 29.08133605 -17.22592163 31.63568115 C-20.65424355 34.61984801 -24.00712964 37.68256599 -27.35092163 40.76068115 C-31.30956812 44.40479831 -35.30268851 47.9998177 -39.36654663 51.52630615 C-43.40465425 55.0556758 -47.37066352 58.66638746 -51.35092163 62.26068115 C-60.83964205 70.82928322 -60.83964205 70.82928322 -65.28842163 74.69818115 C-69.48395385 78.35126072 -73.58465717 82.10573664 -77.69467163 85.85443115 C-80.51814832 88.41216886 -83.38148165 90.91838084 -86.25717163 93.41693115 C-88.8151119 95.66944572 -91.33271143 97.96385207 -93.85092163 100.26068115 C-97.61442684 103.69332876 -101.41221514 107.07623125 -105.25717163 110.41693115 C-107.8151119 112.66944572 -110.33271143 114.96385207 -112.85092163 117.26068115 C-116.61442684 120.69332876 -120.41221514 124.07623125 -124.25717163 127.41693115 C-126.8151119 129.66944572 -129.33271143 131.96385207 -131.85092163 134.26068115 C-135.61442684 137.69332876 -139.41221514 141.07623125 -143.25717163 144.41693115 C-146.77904633 147.5182835 -150.23169185 150.69581448 -153.69857788 153.8583374 C-155.87553159 155.8300996 -158.06930838 157.77433453 -160.28842163 159.69818115 C-163.69780868 162.65951734 -167.02882338 165.70224967 -170.35092163 168.76068115 C-174.34705477 172.43846667 -178.35927039 176.0899302 -182.48373413 179.6239624 C-183.82109467 180.79625124 -185.12515966 182.0069524 -186.40560913 183.2411499 C-189.32777792 186.00342644 -191.45397546 187.99907185 -195.35092163 189.13568115 C-200.08594465 187.75463277 -202.85778043 184.64246382 -206.35092163 181.26068115 C-207.79378594 179.93539832 -209.23686448 178.61033454 -210.68490601 177.29071045 C-212.23912761 175.87364053 -213.78766388 174.45056629 -215.33529663 173.02630615 C-218.8330241 169.81301904 -222.36174713 166.6348441 -225.89779663 163.46380615 C-227.62077492 161.91641801 -229.33912691 160.36387058 -231.05404663 158.80755615 C-231.93576538 158.0083374 -232.81748413 157.20911865 -233.72592163 156.38568115 C-234.51740601 155.66638428 -235.30889038 154.9470874 -236.12435913 154.20599365 C-236.85912476 153.56404053 -237.59389038 152.9220874 -238.35092163 152.26068115 C-239.00318726 151.63935303 -239.65545288 151.0180249 -240.32748413 150.37786865 C-242.32267992 148.99173219 -242.32267992 148.99173219 -244.69857788 149.7333374 C-248.08225915 151.68181955 -250.89675466 154.10346097 -253.78842163 156.69818115 C-259.02519808 161.29373376 -264.35203798 165.70146022 -269.87240601 169.95135498 C-273.24515979 172.56223113 -276.52977919 175.24607378 -279.76498413 178.02630615 C-280.51674927 178.66648682 -281.2685144 179.30666748 -282.0430603 179.96624756 C-283.50645193 181.21721907 -284.96031324 182.47945305 -286.40292358 183.7543335 C-290.57455942 187.30174827 -293.61556388 189.41550063 -299.35092163 189.26068115 C-301.02386475 188.213974 -301.02386475 188.213974 -302.35092163 186.26068115 C-302.65541509 183.73442846 -302.77823857 181.44997091 -302.76742554 178.92205811 C-302.78030357 177.8041539 -302.78030357 177.8041539 -302.79344177 176.66366577 C-302.81858722 174.19200268 -302.82289348 171.72074201 -302.82748413 169.2489624 C-302.84180648 167.52036836 -302.85756571 165.79178567 -302.87469482 164.06321716 C-302.91663658 159.49747003 -302.9415489 154.93179303 -302.96218872 150.36590576 C-302.9978922 143.1052466 -303.05983853 135.84476348 -303.12067795 128.58428001 C-303.13945406 126.069945 -303.1514171 123.55565578 -303.16210938 121.04127502 C-303.20319416 113.47680912 -303.31957125 105.91567202 -303.67489624 98.35882568 C-303.73068344 97.09289581 -303.78647064 95.82696594 -303.84394836 94.52267456 C-304.65497841 89.30430344 -307.18962478 86.88220605 -311.28842163 83.82318115 C-311.97210815 83.2522876 -312.65579468 82.68139404 -313.36019897 82.09320068 C-314.71851686 80.9614291 -316.09097106 79.84636424 -317.47836304 78.75042725 C-319.90962233 76.81619723 -322.19085414 74.73945403 -324.47592163 72.63568115 C-325.64381226 71.59154053 -325.64381226 71.59154053 -326.83529663 70.52630615 C-329.82147762 67.83688849 -332.77561975 65.11433159 -335.72592163 62.38568115 C-336.54854492 61.62493286 -336.54854492 61.62493286 -337.38778687 60.84881592 C-337.93636353 60.34148926 -338.48494019 59.8341626 -339.05014038 59.3114624 C-341.70577313 56.8556069 -344.36476014 54.40348764 -347.03012085 51.95819092 C-348.51360201 50.59597198 -349.99284726 49.22914469 -351.47201538 47.86224365 C-353.38814816 46.1307044 -355.33936032 44.43719872 -357.32357788 42.78411865 C-358.24010132 42.01325928 -359.15662476 41.2423999 -360.10092163 40.44818115 C-360.92076538 39.78173584 -361.74060913 39.11529053 -362.58529663 38.4286499 C-364.35092163 36.26068115 -364.35092163 36.26068115 -364.80404663 33.1864624 C-364.29699714 29.91249631 -363.88769014 29.24783748 -361.35092163 27.26068115 C-359.40538657 26.76789975 -359.40538657 26.76789975 -357.14980507 26.59874344 C-356.28853528 26.52741927 -355.42726548 26.45609511 -354.53989661 26.38260961 C-353.59264381 26.318304 -352.64539102 26.2539984 -351.66943359 26.18774414 C-350.15917903 26.0688011 -350.15917903 26.0688011 -348.61841428 25.94745517 C-345.22494124 25.68359501 -341.83032902 25.43952986 -338.43539429 25.19525146 C-336.00450776 25.01030679 -333.57371318 24.82415018 -331.14300537 24.63687134 C-325.88090486 24.23421347 -320.61826944 23.84008461 -315.35496902 23.45352936 C-307.64387904 22.88717018 -299.93401558 22.30533186 -292.22434799 21.71996555 C-279.58195472 20.76049679 -266.93866609 19.81339409 -254.29476929 18.8739624 C-242.24286432 17.97848827 -230.19137711 17.07772529 -218.14047241 16.16888428 C-217.41044747 16.11383097 -216.68042253 16.05877766 -215.92827561 16.00205606 C-212.25380096 15.72491857 -208.57933494 15.44766672 -204.90487337 15.1703558 C-186.06968705 13.74894221 -167.23425313 12.33090546 -148.39785767 10.92559814 C-147.34107913 10.84675354 -147.34107913 10.84675354 -146.26295152 10.76631612 C-140.64724474 10.34736874 -135.03152661 9.92857358 -129.41580421 9.5098356 C-110.90094928 8.12918469 -92.38712895 6.73567313 -73.87481904 5.32123995 C-70.50398551 5.06381524 -67.13311157 4.80692717 -63.76222038 4.55025864 C-62.14778721 4.42732166 -62.14778721 4.42732166 -60.50073922 4.3019011 C-58.38205617 4.14057764 -56.26337167 3.97927329 -54.14468563 3.81798911 C-48.17415531 3.36313984 -42.20390843 2.90477817 -36.23385906 2.44366169 C-32.64166224 2.16704501 -29.04921486 1.89379983 -25.4566884 1.62150097 C-23.83118164 1.49756844 -22.20578314 1.37220538 -20.58051252 1.24521351 C-13.72781364 0.71018839 -6.87216096 0.19319127 0 0 Z " fill="#FFFFFF" transform="translate(364.3509216308594,-0.26068115234375)"/>
<path d="M0 0 C0.83621069 -0.02423916 1.67242138 -0.04847832 2.53397179 -0.073452 C5.20130195 0.34791846 6.06787908 1.10043444 7.64907837 3.26068115 C7.96307291 6.40062659 7.95924099 7.49000938 6.64907837 10.26068115 C3.6005776 13.60183799 0.13396167 16.38794194 -3.35092163 19.26068115 C-5.06681786 20.79392576 -6.77538205 22.33542181 -8.47592163 23.88568115 C-11.37193591 26.49389277 -14.28234299 29.08133605 -17.22592163 31.63568115 C-20.65424355 34.61984801 -24.00712964 37.68256599 -27.35092163 40.76068115 C-31.30956812 44.40479831 -35.30268851 47.9998177 -39.36654663 51.52630615 C-43.40465425 55.0556758 -47.37066352 58.66638746 -51.35092163 62.26068115 C-60.83964205 70.82928322 -60.83964205 70.82928322 -65.28842163 74.69818115 C-69.48395385 78.35126072 -73.58465717 82.10573664 -77.69467163 85.85443115 C-80.51814832 88.41216886 -83.38148165 90.91838084 -86.25717163 93.41693115 C-88.8151119 95.66944572 -91.33271143 97.96385207 -93.85092163 100.26068115 C-97.61442684 103.69332876 -101.41221514 107.07623125 -105.25717163 110.41693115 C-107.8151119 112.66944572 -110.33271143 114.96385207 -112.85092163 117.26068115 C-116.61442684 120.69332876 -120.41221514 124.07623125 -124.25717163 127.41693115 C-126.8151119 129.66944572 -129.33271143 131.96385207 -131.85092163 134.26068115 C-135.61442684 137.69332876 -139.41221514 141.07623125 -143.25717163 144.41693115 C-146.77904633 147.5182835 -150.23169185 150.69581448 -153.69857788 153.8583374 C-155.87553159 155.8300996 -158.06930838 157.77433453 -160.28842163 159.69818115 C-163.69780868 162.65951734 -167.02882338 165.70224967 -170.35092163 168.76068115 C-174.34705477 172.43846667 -178.35927039 176.0899302 -182.48373413 179.6239624 C-183.82109467 180.79625124 -185.12515966 182.0069524 -186.40560913 183.2411499 C-189.32777792 186.00342644 -191.45397546 187.99907185 -195.35092163 189.13568115 C-200.08594465 187.75463277 -202.85778043 184.64246382 -206.35092163 181.26068115 C-207.79378594 179.93539832 -209.23686448 178.61033454 -210.68490601 177.29071045 C-212.23912761 175.87364053 -213.78766388 174.45056629 -215.33529663 173.02630615 C-218.8330241 169.81301904 -222.36174713 166.6348441 -225.89779663 163.46380615 C-227.62077492 161.91641801 -229.33912691 160.36387058 -231.05404663 158.80755615 C-231.93576538 158.0083374 -232.81748413 157.20911865 -233.72592163 156.38568115 C-234.51740601 155.66638428 -235.30889038 154.9470874 -236.12435913 154.20599365 C-236.85912476 153.56404053 -237.59389038 152.9220874 -238.35092163 152.26068115 C-239.00318726 151.63935303 -239.65545288 151.0180249 -240.32748413 150.37786865 C-242.32267992 148.99173219 -242.32267992 148.99173219 -244.69857788 149.7333374 C-248.08225915 151.68181955 -250.89675466 154.10346097 -253.78842163 156.69818115 C-259.02519808 161.29373376 -264.35203798 165.70146022 -269.87240601 169.95135498 C-273.24515979 172.56223113 -276.52977919 175.24607378 -279.76498413 178.02630615 C-280.51674927 178.66648682 -281.2685144 179.30666748 -282.0430603 179.96624756 C-283.50645193 181.21721907 -284.96031324 182.47945305 -286.40292358 183.7543335 C-290.57455942 187.30174827 -293.61556388 189.41550063 -299.35092163 189.26068115 C-301.02386475 188.213974 -301.02386475 188.213974 -302.35092163 186.26068115 C-302.65541509 183.73442846 -302.77823857 181.44997091 -302.76742554 178.92205811 C-302.78030357 177.8041539 -302.78030357 177.8041539 -302.79344177 176.66366577 C-302.81858722 174.19200268 -302.82289348 171.72074201 -302.82748413 169.2489624 C-302.84180648 167.52036836 -302.85756571 165.79178567 -302.87469482 164.06321716 C-302.91663658 159.49747003 -302.9415489 154.93179303 -302.96218872 150.36590576 C-302.9978922 143.1052466 -303.05983853 135.84476348 -303.12067795 128.58428001 C-303.13945406 126.069945 -303.1514171 123.55565578 -303.16210938 121.04127502 C-303.20319416 113.47680912 -303.31957125 105.91567202 -303.67489624 98.35882568 C-303.73068344 97.09289581 -303.78647064 95.82696594 -303.84394836 94.52267456 C-304.65497841 89.30430344 -307.18962478 86.88220605 -311.28842163 83.82318115 C-311.97210815 83.2522876 -312.65579468 82.68139404 -313.36019897 82.09320068 C-314.71851686 80.9614291 -316.09097106 79.84636424 -317.47836304 78.75042725 C-319.90962233 76.81619723 -322.19085414 74.73945403 -324.47592163 72.63568115 C-325.64381226 71.59154053 -325.64381226 71.59154053 -326.83529663 70.52630615 C-329.82147762 67.83688849 -332.77561975 65.11433159 -335.72592163 62.38568115 C-336.54854492 61.62493286 -336.54854492 61.62493286 -337.38778687 60.84881592 C-337.93636353 60.34148926 -338.48494019 59.8341626 -339.05014038 59.3114624 C-341.70577313 56.8556069 -344.36476014 54.40348764 -347.03012085 51.95819092 C-348.51360201 50.59597198 -349.99284726 49.22914469 -351.47201538 47.86224365 C-353.38814816 46.1307044 -355.33936032 44.43719872 -357.32357788 42.78411865 C-358.24010132 42.01325928 -359.15662476 41.2423999 -360.10092163 40.44818115 C-360.92076538 39.78173584 -361.74060913 39.11529053 -362.58529663 38.4286499 C-364.35092163 36.26068115 -364.35092163 36.26068115 -364.80404663 33.1864624 C-364.29699714 29.91249631 -363.88769014 29.24783748 -361.35092163 27.26068115 C-359.40538657 26.76789975 -359.40538657 26.76789975 -357.14980507 26.59874344 C-356.28853528 26.52741927 -355.42726548 26.45609511 -354.53989661 26.38260961 C-353.59264381 26.318304 -352.64539102 26.2539984 -351.66943359 26.18774414 C-350.15917903 26.0688011 -350.15917903 26.0688011 -348.61841428 25.94745517 C-345.22494124 25.68359501 -341.83032902 25.43952986 -338.43539429 25.19525146 C-336.00450776 25.01030679 -333.57371318 24.82415018 -331.14300537 24.63687134 C-325.88090486 24.23421347 -320.61826944 23.84008461 -315.35496902 23.45352936 C-307.64387904 22.88717018 -299.93401558 22.30533186 -292.22434799 21.71996555 C-279.58195472 20.76049679 -266.93866609 19.81339409 -254.29476929 18.8739624 C-242.24286432 17.97848827 -230.19137711 17.07772529 -218.14047241 16.16888428 C-217.41044747 16.11383097 -216.68042253 16.05877766 -215.92827561 16.00205606 C-212.25380096 15.72491857 -208.57933494 15.44766672 -204.90487337 15.1703558 C-186.06968705 13.74894221 -167.23425313 12.33090546 -148.39785767 10.92559814 C-147.34107913 10.84675354 -147.34107913 10.84675354 -146.26295152 10.76631612 C-140.64724474 10.34736874 -135.03152661 9.92857358 -129.41580421 9.5098356 C-110.90094928 8.12918469 -92.38712895 6.73567313 -73.87481904 5.32123995 C-70.50398551 5.06381524 -67.13311157 4.80692717 -63.76222038 4.55025864 C-62.14778721 4.42732166 -62.14778721 4.42732166 -60.50073922 4.3019011 C-58.38205617 4.14057764 -56.26337167 3.97927329 -54.14468563 3.81798911 C-48.17415531 3.36313984 -42.20390843 2.90477817 -36.23385906 2.44366169 C-32.64166224 2.16704501 -29.04921486 1.89379983 -25.4566884 1.62150097 C-23.83118164 1.49756844 -22.20578314 1.37220538 -20.58051252 1.24521351 C-13.72781364 0.71018839 -6.87216096 0.19319127 0 0 Z M-40.79055786 14.17181396 C-42.74154133 14.31882185 -42.74154133 14.31882185 -44.7319386 14.46879959 C-48.30804113 14.73838189 -51.88369397 15.01355437 -55.45929384 15.28971291 C-59.32798878 15.58749788 -63.19708404 15.8799954 -67.06613159 16.17315674 C-73.75818068 16.68093727 -80.44997103 17.19201803 -87.14159393 17.7053833 C-96.81638894 18.44760552 -106.49156313 19.1847839 -116.16683522 19.92075777 C-131.86681541 21.11515278 -147.56648435 22.31358914 -163.26596069 23.5145874 C-178.51059025 24.68078147 -193.75536416 25.84505952 -209.00033569 27.0067749 C-210.41144257 27.11430674 -210.41144257 27.11430674 -211.85105667 27.22401094 C-216.57077319 27.58365989 -221.29049257 27.94327131 -226.01021338 28.30286407 C-265.12422756 31.28298672 -304.23773815 34.26967674 -343.35092163 37.26068115 C-343.68902845 40.19367697 -343.68902845 40.19367697 -342.12826538 41.5927124 C-341.52111694 42.08126709 -340.91396851 42.56982178 -340.28842163 43.07318115 C-336.04501953 46.62316764 -332.00442072 50.3466682 -327.97592163 54.13568115 C-323.00020226 58.80099091 -317.99510204 63.42315495 -312.89779663 67.95599365 C-310.9029718 69.76112655 -308.94158633 71.58772151 -306.99154663 73.44036865 C-306.40905151 73.98999268 -305.8265564 74.5396167 -305.22640991 75.105896 C-304.08366706 76.18616253 -302.94634233 77.27219777 -301.8152771 78.36468506 C-299.05545578 80.96431916 -297.12024626 82.69864639 -293.35092163 83.26068115 C-290.39842206 82.74734241 -287.55272285 82.14856277 -284.64559937 81.4442749 C-283.31486956 81.13347661 -283.31486956 81.13347661 -281.95725632 80.81639957 C-278.98090187 80.11897672 -276.00781148 79.40852019 -273.03451538 78.69818115 C-270.91030551 78.19779496 -268.78589567 77.69825703 -266.66130066 77.19950867 C-262.09367152 76.12553074 -257.52741593 75.04595173 -252.96212769 73.96206665 C-245.76755362 72.25423356 -238.56981613 70.56002789 -231.37142944 68.86834717 C-221.39536969 66.52288659 -211.42034866 64.17306787 -201.44613647 61.81976318 C-181.11422432 57.02362223 -160.77844064 52.24412287 -140.43519878 47.49625206 C-133.9186221 45.97506826 -127.40384351 44.44648176 -120.89038372 42.91200924 C-116.85031687 41.96187172 -112.80876235 41.01819183 -108.76675987 40.07632637 C-106.8998745 39.63995113 -105.03360287 39.20094034 -103.1680088 38.75907707 C-100.62545199 38.15729797 -98.08083801 37.56513253 -95.53549194 36.97528076 C-94.80279807 36.79943451 -94.0701042 36.62358826 -93.31520748 36.44241333 C-88.92311752 35.43760896 -84.85135307 34.83475424 -80.35092163 35.26068115 C-78.35092163 38.26068115 -78.35092163 38.26068115 -78.38241577 40.76824951 C-79.35092163 43.26068115 -79.35092163 43.26068115 -81.69247437 44.81756592 C-82.7334729 45.25383301 -83.77447144 45.6901001 -84.84701538 46.1395874 C-86.03150269 46.64506104 -87.21598999 47.15053467 -88.43637085 47.67132568 C-89.74061683 48.20259675 -91.04548223 48.73234937 -92.35092163 49.26068115 C-93.67034498 49.80678936 -94.98951479 50.35351049 -96.30844116 50.90081787 C-99.89117294 52.37731089 -103.48499447 53.82485796 -107.08255005 55.26480103 C-111.16878628 56.90110382 -115.25014507 58.54947711 -119.33139038 60.19818115 C-120.16837463 60.53619247 -121.00535889 60.8742038 -121.8677063 61.22245789 C-130.34632654 64.65261081 -138.78872643 68.1676152 -147.22592163 71.69818115 C-159.64401438 76.89208288 -172.08111984 82.03652084 -184.53842163 87.13568115 C-198.55243766 92.8729118 -212.55157686 98.64500898 -226.53842163 104.44818115 C-227.40196259 104.80643982 -228.26550354 105.16469849 -229.1552124 105.53381348 C-238.55702235 109.4349972 -247.95642055 113.34192557 -257.35092163 117.26068115 C-254.12896317 123.97352698 -248.20717275 128.45359605 -242.64389038 133.25286865 C-239.88186281 135.67140728 -237.17694451 138.14959491 -234.47592163 140.63568115 C-229.13476813 145.54883882 -223.75296427 150.4144757 -218.35092163 155.26068115 C-216.68399516 156.76039243 -215.01733014 158.26039436 -213.35092163 159.76068115 C-212.53494507 160.49415771 -211.71896851 161.22763428 -210.87826538 161.9833374 C-209.11686147 163.57050661 -207.3593401 165.16199068 -205.60482788 166.7567749 C-204.71666382 167.56243896 -203.82849976 168.36810303 -202.91342163 169.19818115 C-202.11033569 169.92907959 -201.30724976 170.65997803 -200.47982788 171.4130249 C-198.28799198 173.39395696 -198.28799198 173.39395696 -195.35092163 175.26068115 C-194.43310913 174.40345459 -193.51529663 173.54622803 -192.56967163 172.6630249 C-181.04079151 161.91405811 -181.04079151 161.91405811 -175.26498413 156.92474365 C-171.24263982 153.42776676 -167.30653184 149.83271704 -163.35092163 146.26068115 C-153.86220122 137.69207908 -153.86220122 137.69207908 -149.41342163 133.82318115 C-145.21788942 130.17010159 -141.1171861 126.41562566 -137.00717163 122.66693115 C-134.18369494 120.10919345 -131.32036161 117.60298146 -128.44467163 115.10443115 C-125.88673136 112.85191659 -123.36913183 110.55751023 -120.85092163 108.26068115 C-117.08741642 104.82803354 -113.28962812 101.44513106 -109.44467163 98.10443115 C-106.88673136 95.85191659 -104.36913183 93.55751023 -101.85092163 91.26068115 C-98.08741642 87.82803354 -94.28962812 84.44513106 -90.44467163 81.10443115 C-87.88673136 78.85191659 -85.36913183 76.55751023 -82.85092163 74.26068115 C-79.08741642 70.82803354 -75.28962812 67.44513106 -71.44467163 64.10443115 C-68.88673136 61.85191659 -66.36913183 59.55751023 -63.85092163 57.26068115 C-60.08741642 53.82803354 -56.28962812 50.44513106 -52.44467163 47.10443115 C-49.88673136 44.85191659 -47.36913183 42.55751023 -44.85092163 40.26068115 C-41.71008607 37.395963 -38.55991408 34.54882213 -35.35092163 31.76068115 C-28.49490788 25.79524239 -21.73797692 19.7282939 -15.35092163 13.26068115 C-23.88052986 13.13375019 -32.28860396 13.50720195 -40.79055786 14.17181396 Z " fill="#000000" transform="translate(364.3509216308594,-0.26068115234375)"/>
<path d="M0 0 C-20.15710066 8.46914638 -40.31649075 16.93118418 -60.55258179 25.21020508 C-62.93651808 26.18709763 -65.31869857 27.16815889 -67.70043945 28.15039062 C-75.02723898 31.16837333 -82.36198261 34.15555096 -89.7436676 37.03718567 C-93.11442501 38.35716434 -96.47617245 39.69917424 -99.83694458 41.04434204 C-101.42803117 41.67447036 -103.02328758 42.29418365 -104.62277222 42.90267944 C-106.82762244 43.74227812 -109.01548907 44.61669826 -111.203125 45.5 C-112.17515617 45.85394585 -112.17515617 45.85394585 -113.16682434 46.21504211 C-115.7566764 47.29539565 -117.63302208 48.35244503 -119.03559875 50.82737732 C-119.82112218 52.86767716 -120.44469865 54.88634749 -121 57 C-121.26385498 57.86890869 -121.52770996 58.73781738 -121.79956055 59.63305664 C-122.4375979 62.10747425 -123.06905261 64.58310517 -123.6875 67.0625 C-124.02491211 68.35124023 -124.02491211 68.35124023 -124.36914062 69.66601562 C-125.60628792 74.58828253 -126.25472474 78.92615852 -126 84 C-123.36 84 -120.72 84 -118 84 C-115.35968328 77.46207289 -113.61191652 70.85921925 -112 64 C-108.62535238 65.89352001 -105.97083288 67.81732258 -103.3125 70.625 C-100.92157292 73.16851558 -100.92157292 73.16851558 -98 75 C-99.35727511 78.12215428 -100.78281963 79.93163119 -103.421875 82.06640625 C-104.11120117 82.62924316 -104.80052734 83.19208008 -105.51074219 83.77197266 C-106.24969727 84.36284668 -106.98865234 84.9537207 -107.75 85.5625 C-108.50700195 86.17657715 -109.26400391 86.7906543 -110.04394531 87.42333984 C-115.99837774 92.23902137 -122.00452452 96.99049024 -128.046875 101.6953125 C-129.98983507 103.21164377 -131.91756066 104.7477359 -133.828125 106.3046875 C-136 108 -136 108 -137 108 C-137 82.26 -137 56.52 -137 30 C-111.08970917 24.00150474 -111.08970917 24.00150474 -99.87890625 21.40625 C-92.28726018 19.64881465 -84.69561825 17.89136146 -77.10400391 16.13378906 C-70.9701761 14.71371741 -64.83632729 13.29373656 -58.70246506 11.87381363 C-56.38501644 11.33733348 -54.06757487 10.8008229 -51.75014114 10.26427841 C-50.0977701 9.88171576 -50.0977701 9.88171576 -48.41201782 9.49142456 C-47.3238143 9.23937319 -46.23561077 8.98732182 -45.11443138 8.72763252 C-42.97073961 8.23170953 -40.82680426 7.73683812 -38.68261147 7.24308586 C-33.01393004 5.93664022 -27.3512279 4.60886267 -21.69403076 3.253479 C-20.49884008 2.96999666 -19.30364941 2.68651432 -18.07224083 2.3944416 C-15.77206042 1.84856643 -13.47335316 1.29643573 -11.17637062 0.737257 C-10.148179 0.49461679 -9.11998737 0.25197659 -8.06063843 0.00198364 C-7.15361868 -0.21608381 -6.24659893 -0.43415127 -5.31209373 -0.65882683 C-3 -1 -3 -1 0 0 Z " fill="#FFFFFF" transform="translate(210,63)"/>
</svg>
