<svg id="Layer_1" data-name="Layer 1" xmlns="http://www.w3.org/2000/svg" viewBox="0 0 370.98 188.18"><path d="M2223,373.52a4.78,4.78,0,0,0-5.18-3.1l-360.46,27.32a4.76,4.76,0,0,0-4.48,3.44,4.81,4.81,0,0,0,1.37,5.51l59.67,54.72.44,91.91a5.16,5.16,0,0,0,8.46,4l50.35-40.86,44,39.82a5.09,5.09,0,0,0,3.49,1.36,5.2,5.2,0,0,0,3.49-1.36l197.52-176.8A4.78,4.78,0,0,0,2223,373.52ZM1924.74,542.41l-.38-79.15,148-34.42-127,52.48-.22.1a2.45,2.45,0,0,0-.49.28h-.06a6.37,6.37,0,0,0-1.42,1.25l-.05.11a1.74,1.74,0,0,0-.27.44l-.06.11a2.27,2.27,0,0,0-.27.54l0,.16a.76.76,0,0,0-.11.33l-6.77,26.62a5,5,0,0,0,.49,4,4.81,4.81,0,0,0,3.22,2.4,5,5,0,0,0,4-.6,4.94,4.94,0,0,0,2.34-3.27l4.58-18.06,15.06,13.64Zm96,3-63.77-57.66,178-73.48.22-.11.16-.11.22-.05.22-.16.22-.11.22-.22c.05-.05.1-.11.16-.16s.16-.06.16-.11l.22-.22.17-.17a.8.8,0,0,0,.16-.21l.16-.17c.06-.05.11-.16.17-.21a.29.29,0,0,1,.1-.22c.06-.11.06-.17.11-.22a.52.52,0,0,0,.11-.28c.06-.05.06-.1.11-.16s.06-.16.11-.27a.31.31,0,0,1,.06-.22,2.24,2.24,0,0,0,0-.27l.06-.22a2.71,2.71,0,0,0,.05-.27v-1.48l-.05-.21a.38.38,0,0,0-.06-.22l0-.17a.37.37,0,0,0-.06-.21c0-.06,0-.11,0-.22a.19.19,0,0,1-.06-.16l-.11-.17c0-.05-.05-.11-.05-.16l-.11-.22-.16-.27-.11-.17L2137,406l-.16-.17a2.19,2.19,0,0,1-.22-.22l-.16-.1-.17-.17-.44-.32c-.1-.06-.16-.06-.21-.11l-.44-.22c-.11-.06-.17-.06-.22-.11s-.16-.05-.27-.11l-.22-.06-.27-.05-.22-.06-.27,0h-1.47l-.23,0H2132L1920.64,453.5l-50.45-46.32,333.24-25.25Z" transform="translate(-1852.54 -370.39)"/></svg>